<?xml version="1.0" encoding="utf-8"?>
<!-- Generator: Adobe Illustrator 26.5.3, SVG Export Plug-In . SVG Version: 6.00 Build 0)  -->
<svg version="1.1" xmlns="http://www.w3.org/2000/svg" xmlns:xlink="http://www.w3.org/1999/xlink" x="0px" y="0px"
	 viewBox="0 0 150 150" style="enable-background:new 0 0 150 150;" xml:space="preserve">
<style type="text/css">
	.st0{fill:none;}
	.st1{fill:#FFFFFF;}
</style>
<g id="grids">
	<g id="grid">
		<g>
			<rect x="135" class="st0" width="15" height="15"/>
			<rect x="135" y="135" class="st0" width="15" height="15"/>
		</g>
		<g>
			<rect class="st0" width="15" height="15"/>
			<rect y="135" class="st0" width="15" height="15"/>
		</g>
	</g>
</g>
<g id="logo">
	<g>
		<g>
			<path class="st1" d="M92.3,84.8v3.1H93c3.5,0,6.8,0,10.3,0c0.9,0,1,0.2,1,1c0,0.2,0,0.3,0,0.7s-0.3,0.7-0.7,0.7
				c-4.4,0-8.5,0-12.9,0c-0.3,0-0.7-0.2-0.7-0.5s-0.2-0.7-0.2-0.9c0-3.1,0-6.3,0-9.6c0-0.2,0-0.3,0-0.5c0.2-0.7,0.3-0.9,1-0.9
				c4.2,0,8.4,0,12.4,0c0.7,0,0.9,0.2,1,1c0,1.4,0,1.6-1.4,1.6c-3.3,0-6.6,0-9.9,0c-0.2,0-0.3,0-0.7,0v1.7c0.2,0,0.3,0,0.7,0
				c3.5,0,7,0,10.5,0c0.9,0,1,0.2,1,1c0,0.2,0,0.2,0,0.3c0,1-0.2,1.2-1.2,1.2c-3.5,0-6.8,0-10.3,0C92.6,84.8,92.4,84.8,92.3,84.8
				L92.3,84.8z"/>
			<path class="st1" d="M135,84.1c0,1.7,0,3.5,0,5.2c0,0.9-0.2,0.9-1,1c-1.2,0.2-1.9-0.3-2.8-1c-2.3-2.3-4.5-4.4-6.8-6.5
				c-0.2-0.2-0.2-0.2-0.3-0.3c-0.5-0.2-0.7-0.2-0.9,0.3c0,0.3,0,0.7,0,0.9c0,1.7,0,3.7,0,5.4c0,0.9-0.2,1-1,1c-1.4,0-1.6,0-1.6-1.6
				c0-3.3,0-6.5,0-9.8c0-0.9,0.2-1,1-1c1.2-0.2,1.9,0.3,2.8,1c2.3,2.1,4.5,4.4,6.8,6.5c0.2,0.2,0.2,0.2,0.3,0.3
				c0.5,0.3,0.7,0.2,0.9-0.3c0-0.3,0.2-0.7,0.2-1c0-1.7,0-3.7,0-5.4c0-0.9,0.2-1,1-1c1.4,0,1.4,0,1.4,1.4
				C135,80.9,135,82.5,135,84.1L135,84.1z"/>
			<path class="st1" d="M68.9,90.3c-1,0-2.3,0-3.3,0c-3.5,0.2-6.8-2.8-6.3-7.2c0.3-2.8,3-5.4,6.1-5.4c2.4,0,4.9,0,7.3,0
				c0.9,0,1,0.2,1,1c0,1.4,0,1.4-1.4,1.4c-1.9,0-3.8,0-5.8,0c-1,0-2.1,0-3,0.7c-1.4,1-1.9,2.4-1.6,3.8s1.7,2.6,3.3,2.8
				c2.4,0,4.7,0,7.2,0c1,0,1.2,0.2,1.2,1.2c0,0.2,0,0.3,0,0.3c0,0.7-0.2,0.9-0.9,0.9C71.5,90.3,70.1,90.3,68.9,90.3L68.9,90.3z"/>
			<path class="st1" d="M112.7,78c1-0.3,1.6,0.3,1.9,1.4c1.6,3.3,3.3,6.6,4.9,10.1c0.3,0.7,0.2,0.9-0.5,0.9c-0.3,0-0.5,0-0.7,0
				c-0.9,0.2-1.4-0.3-1.7-1c-1-2.3-2.3-4.5-3.5-7c-0.3-0.7-0.9-0.9-1.4,0c-0.7,1.4-1.4,3-2.3,4.4c-0.5,0.9-0.9,1.9-1.4,2.8
				c-0.2,0.5-0.7,0.9-1.2,0.7c-0.3,0-0.7,0-1,0c-0.7,0-0.9-0.3-0.7-0.9c0.3-0.7,0.5-1.2,0.9-1.9c1.4-2.8,2.6-5.4,4-8.2
				C110.9,78,110.9,78,112.7,78z"/>
			<path class="st1" d="M84.1,90.3c-1.2,0-2.3,0-3.5,0c-3.1,0.2-6.1-2.6-6.1-5.9c0-1.7,0-3.7,0-5.4c0-0.7,0.2-0.9,0.9-0.9
				c1.6,0,1.6,0,1.6,1.6c0,1.6,0,3.3,0,4.9c0,1.7,1.7,3.3,3.5,3.3c2.4,0,4.9,0,7.2,0c1,0,1.2,0.2,1.2,1.2c0,0.2,0,0.3,0,0.5
				c0,0.5-0.3,0.9-0.9,0.9C86.9,90.3,85.5,90.3,84.1,90.3L84.1,90.3z"/>
		</g>
		<g>
			<path class="st1" d="M87,63.1c1.7,0,3.5,0,5.1,0c0.7,0,0.9,0.2,1,1c0,0.2,0,0.3,0,0.5c0,0.7-0.3,0.9-0.9,0.9c-3,0-5.9,0-8.9,0
				c-0.3,0-0.7,0-1.2,0.2c-0.3,0-0.7,0.3-0.7,0.7c0,0.3,0.2,0.7,0.7,0.7c0.3,0.2,0.9,0.2,1.4,0.2c1.9,0,3.8,0,5.8,0
				c2.3,0,4,1.7,4,4.2s-1.7,4-4.2,4c-3.1,0-6.1,0-9.2,0c-0.9,0-1-0.2-1-1c0-0.2,0-0.3,0-0.5c0-0.7,0.2-0.9,0.9-0.9c3,0,6.1,0,9.1,0
				c0.3,0,0.7,0,0.9-0.2c0.5-0.3,0.9-0.9,0.9-1.4c0-0.7-0.7-1.2-1.4-1.4c-0.3,0-0.5,0-0.9,0c-2.1,0-4.2,0-6.1,0c-3,0-4-2.8-3.1-4.9
				c0.5-1.2,1.7-1.9,3-1.9C83.5,63.1,85.3,63.1,87,63.1L87,63.1z"/>
			<path class="st1" d="M65.1,63.1c1,0,2.1,0,3.3,0c3.5-0.2,6.8,2.6,6.3,7c-0.3,3.1-3,5.4-5.9,5.4c-2.4,0-4.9,0-7.3,0
				c-0.9,0-1-0.2-1-1c0-1.9,0-4,0-5.9c0-0.9,0.2-1,1-1c0.2,0,0.3,0,0.3,0c0.9,0,1,0.2,1,1c0,1,0,2.1,0,3.1c0,1.2,0.2,1.4,1.4,1.4
				c1.6,0,3.1,0,4.5,0c1.7-0.2,3.3-1.7,3.3-3.5c0-1.6-1.2-3.3-3-3.7c-0.5-0.2-0.9-0.2-1.4-0.2c-2.1,0-4.4,0-6.5,0c-0.9,0-1-0.2-1-1
				c0-0.2,0-0.3,0-0.5c0-0.7,0.2-1,0.9-1C62.3,63.1,63.7,63.1,65.1,63.1L65.1,63.1z"/>
			<path class="st1" d="M112.2,63.1c1-0.2,1.6,0.3,2.1,1.2c1.6,3.3,3.3,6.8,4.9,10.1c0.3,0.7,0.2,1-0.7,1c-1.2,0.2-2.1-0.3-2.6-1.6
				c-0.9-2.1-2.1-4.2-3-6.1c-0.2-0.3-0.3-0.9-0.9-0.9c-0.3,0-0.7,0.5-0.9,0.9c-0.9,1.9-1.9,3.8-2.8,5.6c-0.2,0.3-0.3,0.9-0.7,1.4
				s-0.5,0.7-1,0.7c-0.3,0-0.7,0-0.9,0c-0.9,0-1-0.3-0.7-1c0.7-1.6,1.4-3,2.1-4.5c0.9-1.9,1.9-3.7,2.8-5.6
				C110.4,63.5,110.9,63,112.2,63.1z"/>
			<path class="st1" d="M101.2,63.1c2.1,0,4,0,6.1,0c0.9,0,1,0.2,1,1c0,1.4,0,1.6-1.6,1.6c-1,0-2.1,0-3,0c-1.2,0-1.4,0.3-1.4,1.4
				c0,2.4,0,4.9,0,7.3c0,0.3,0,1-0.5,1c-0.5,0.2-1.2,0-1.7-0.2c-0.2,0-0.3-0.5-0.3-0.7c0-2.3,0-4.7,0-7c0-0.2,0-0.3,0-0.5
				c0-1.2-0.3-1.4-1.4-1.4c-1.2,0-2.3,0-3.5,0c-0.7,0-1-0.2-1-1c0-0.2,0-0.3,0-0.5c0-0.7,0.2-1,0.9-1C97,63.1,99.1,63.1,101.2,63.1
				L101.2,63.1z"/>
			<path class="st1" d="M77.8,69.4c0,1.7,0,3.5,0,5.2c0,0.7-0.2,0.9-0.9,1c-0.2,0-0.3,0-0.7,0c-0.5,0-0.9-0.3-0.9-0.9
				c0-3.7,0-7.2,0-10.8c0-0.5,0.3-0.9,0.9-0.9c1.6,0,1.6,0,1.6,1.6C77.8,66.3,77.8,67.8,77.8,69.4L77.8,69.4z"/>
		</g>
		<g>
			<polygon class="st1" points="43.8,51.1 19.2,51.1 22.8,57.6 35.6,57.6 21.5,82.3 21.6,69.6 15,63.3 15,89 16.4,91.2 19,95.4 
				21.5,95.4 45.2,53.5 			"/>
			<polygon class="st1" points="52.8,86.7 52.8,61 48.8,54.6 46.2,54.6 22.5,96.6 24.1,98.9 48.8,98.9 45.2,92.6 32.4,92.6 
				46.4,67.8 46.2,81.1 			"/>
		</g>
	</g>
</g>
</svg>
