<?xml version="1.0" encoding="utf-8"?>
<!-- Generator: Adobe Illustrator 26.5.3, SVG Export Plug-In . SVG Version: 6.00 Build 0)  -->
<svg version="1.1" xmlns="http://www.w3.org/2000/svg" xmlns:xlink="http://www.w3.org/1999/xlink" x="0px" y="0px"
	 viewBox="0 0 150 150" style="enable-background:new 0 0 150 150;" xml:space="preserve">
<style type="text/css">
	.st0{fill:none;}
	.st1{fill:#FFFFFF;}
</style>
<g id="grid">
	<g>
		<rect x="135" class="st0" width="15" height="15"/>
		<rect x="135" y="135" class="st0" width="15" height="15"/>
	</g>
	<g>
		<rect class="st0" width="15" height="15"/>
		<rect y="135" class="st0" width="15" height="15"/>
	</g>
</g>
<g id="logo">
	<g>
		<path class="st1" d="M33.7,15.1h81.9c10.1,0,18.3,8.2,18.3,18.3l0,0c0,10.1-8.2,18.3-18.3,18.3H33.7c-10.1,0-18.3-8.2-18.3-18.3
			l0,0C15.5,23.3,23.6,15.1,33.7,15.1z"/>
		<path class="st1" d="M34.6,56.8h40c10.1,0,18.3,8.2,18.3,18.3l0,0c0,10.1-8.2,18.3-18.3,18.3h-40c-10.1,0-18.3-8.2-18.3-18.3l0,0
			C16.3,65,24.5,56.8,34.6,56.8z"/>
		<path class="st1" d="M76.3,98.4h40c10.1,0,18.3,8.2,18.3,18.3v0c0,10.1-8.2,18.3-18.3,18.3h-40c-10.1,0-18.3-8.2-18.3-18.3v0
			C58,106.6,66.2,98.4,76.3,98.4z"/>
		<circle class="st1" cx="116.3" cy="75.1" r="18.3"/>
		<circle class="st1" cx="33.7" cy="115.7" r="18.3"/>
	</g>
</g>
</svg>
