<?xml version="1.0" encoding="utf-8"?>
<!-- Generator: Adobe Illustrator 26.5.3, SVG Export Plug-In . SVG Version: 6.00 Build 0)  -->
<svg version="1.1" id="Capa_1" xmlns="http://www.w3.org/2000/svg" xmlns:xlink="http://www.w3.org/1999/xlink" x="0px" y="0px"
	 viewBox="0 0 150 150" style="enable-background:new 0 0 150 150;" xml:space="preserve">
<style type="text/css">
	.st0{fill:none;}
	.st1{fill:#FFFFFF;}
</style>
<g id="grid">
	<g>
		<rect x="135" class="st0" width="15" height="15"/>
		<rect x="135" y="135" class="st0" width="15" height="15"/>
	</g>
	<g>
		<rect class="st0" width="15" height="15"/>
		<rect y="135" class="st0" width="15" height="15"/>
	</g>
</g>
<g>
	<g id="logo_00000085966269776709823800000002197457308156202890_">
		<g>
			<path class="st1" d="M19.5,61.7h18.1c2.2,0,4.1,1.8,4.1,4.1l0,0c0,2.2-1.8,4.1-4.1,4.1H19.5c-2.2,0-4.1-1.8-4.1-4.1l0,0
				C15.4,63.5,17.2,61.7,19.5,61.7z"/>
			<path class="st1" d="M19.7,71h8.9c2.2,0,4.1,1.8,4.1,4.1l0,0c0,2.2-1.8,4.1-4.1,4.1h-8.9c-2.2,0-4.1-1.8-4.1-4.1l0,0
				C15.6,72.8,17.4,71,19.7,71z"/>
			<path class="st1" d="M28.9,80.2h8.9c2.2,0,4.1,1.8,4.1,4.1l0,0c0,2.2-1.8,4.1-4.1,4.1h-8.9c-2.2,0-4.1-1.8-4.1-4.1l0,0
				C24.8,82,26.6,80.2,28.9,80.2z"/>
			<circle class="st1" cx="37.7" cy="75" r="4.1"/>
			<circle class="st1" cx="19.5" cy="84" r="4.1"/>
		</g>
	</g>
	<g>
		<path class="st1" d="M52.1,70.8c-1.8,0-3.5,0.7-4.7,1.7v-7.8h-3.8v20h3.8v-1.7c1.3,1.1,2.9,1.7,4.7,1.7c4,0,7.2-3.1,7.2-7
			C59.3,73.9,56.1,70.8,52.1,70.8z M52.1,81.3c-2,0-3.7-1.6-3.7-3.5c0-1.9,1.6-3.5,3.7-3.5c2,0,3.7,1.6,3.7,3.5
			C55.8,79.7,54.1,81.3,52.1,81.3z"/>
		<rect x="61.2" y="70.8" class="st1" width="3.9" height="14"/>
		<circle class="st1" cx="63.2" cy="67.1" r="2.4"/>
		<path class="st1" d="M67.8,73.7H74c-1.2,1.6-6.2,8.1-6.2,8.2v2.9h10.9v-2.9h-6.5l6.5-8.2v-2.9H67.8V73.7z"/>
		<path class="st1" d="M86.7,65.4c-1.8,0-3.3,1.5-3.3,3.3v2.8H81v3h2.4v10.2h3.7V74.6h3.6v-3h-3.6V70c0-0.8,0.7-1.5,1.5-1.5h2.1
			c0,0-0.1-3,0-3.1C90.7,65.3,88.6,65.3,86.7,65.4z"/>
		<rect x="94.2" y="64.7" class="st1" width="4.1" height="19.7"/>
		<path class="st1" d="M107.8,70.2c-4.1,0-7.4,3.4-7.4,7.6c0,4.2,3.3,7.6,7.4,7.6s7.4-3.4,7.4-7.6C115.2,73.5,111.9,70.2,107.8,70.2
			z M107.8,81.5c-2,0-3.6-1.7-3.6-3.8c0-2.1,1.6-3.8,3.6-3.8c2,0,3.6,1.7,3.6,3.8C111.5,79.8,109.8,81.5,107.8,81.5z"/>
		<polygon class="st1" points="134.3,70.9 131.5,79.1 128.8,70.9 125.7,70.9 123,79.1 120.3,70.9 116,70.9 120.7,84.3 124.6,84.3 
			127.4,77.7 129.5,84.5 133,84.5 137.9,70.9 		"/>
	</g>
</g>
</svg>
