<?xml version="1.0" encoding="utf-8"?>
<!-- Generator: Adobe Illustrator 26.5.3, SVG Export Plug-In . SVG Version: 6.00 Build 0)  -->
<svg version="1.1" id="v-2" xmlns="http://www.w3.org/2000/svg" xmlns:xlink="http://www.w3.org/1999/xlink" x="0px" y="0px"
	 viewBox="0 0 45.6 19.7" style="enable-background:new 0 0 45.6 19.7;" xml:space="preserve">
<style type="text/css">
	.st0{fill:#F0F6E8;}
</style>
<g>
	<g>
		<polygon class="st0" points="36.1,2.3 37.1,2.3 37.1,7 39.2,7 39.2,0.1 39.2,0.1 33.6,0.1 32.7,2.4 35.1,2.4 31.3,6.8 32.5,3.1 
			30.2,3.1 31.2,0.1 29.2,0.1 29.2,7 36.1,7 		"/>
		<path class="st0" d="M25.1,4c0.4,0,0.8,0.2,1.4,0.7V3.2c0,0-0.6-0.1-1.4,0.3V2.3h3.1V0.1H23V7h2.2L25.1,4L25.1,4z"/>
		<path class="st0" d="M25.8,8.4H23v11.2h2.6c3,0,4.1-2.1,4.1-5.9C29.7,10.2,28.6,8.4,25.8,8.4z M25.6,18.2h-0.8V9.9h0.8
			c1.7,0,2.3,1.2,2.3,3.9C27.9,16.8,27.3,18.2,25.6,18.2z"/>
		<polygon class="st0" points="33,14.5 36.7,14.5 36.7,13 33,13 33,9.9 36.8,9.9 36.8,8.4 31.3,8.4 31.3,19.6 36.9,19.6 37.1,18.1 
			33,18.1 		"/>
		<path class="st0" d="M43.6,8.4l-1.1,5c-0.3,1.5-0.8,3.3-0.9,4.4h0c-0.1-1.1-0.5-2.9-0.8-4.4l-1.1-5h-1.9l2.8,11.2h2l2.8-11.2
			L43.6,8.4L43.6,8.4z"/>
		<path class="st0" d="M42.3,4.8V4l0,0c0.4,0,0.8,0.2,1.4,0.7V3.2c0,0-0.6-0.1-1.4,0.3V2.3h3.1V0.1h-5.2V7h5.2V4.8H42.3z"/>
	</g>
	<path class="st0" d="M18.9,10.5c0.5-2,0-4.2-1.2-6c-1.4-1.9-3.4-3.1-6-3.4C9.6-0.4,5.9-0.1,4.3,0.8C4.2,0.9,4.1,1,4.1,1.1
		c0,0,0,0.1,0,0.2C3.5,1.4,2.5,1.8,2,2.5c0,0-0.1,0.1,0,0.2C1.9,2.8,2,2.9,2,3c0,0,0,0,0.1,0C1.6,3.2,1.1,3.6,0.6,4.2
		c-0.1,0.1-0.1,0.2,0,0.3C0.4,4.7,0.3,4.8,0.3,5c0,0.1,0,0.2,0,0.3c0,0,0.1,0.2,0.3,0.5l0,0C0.5,5.8,0.4,5.9,0.4,6
		c0,0,0.1,1.3,1.1,2.7c-0.2,1.1-0.2,2.1-0.1,3.1c-0.8,2.8,0.2,4.6,1.3,5.6c1.4,1.4,3.6,2.1,5.9,2.1c1.2,0,2.4-0.2,3.5-0.6h0
		c0.5-0.2,0.8-0.3,1.1-0.5c0,0,0,0,0,0c1.2-0.4,2.2-1.4,2.6-2.6c0.1,0.1,0.3,0.2,0.5,0.3c0.5,0.2,0.9,0.2,1.5,0
		c1-0.5,1.8-1.5,2.2-2.8C20.4,11.7,19.7,10.8,18.9,10.5z M12.9,10.7c0,0-0.3-1.5-1.6-1.8C9.9,8.5,8.8,9.2,8.8,9.2s-0.5-1,0.4-1.8
		c0,0,0,0.2,0.1,0.4c0.5-0.2,1.8-0.2,2.6,0.3C12.6,8.4,13.2,9.4,12.9,10.7z M12.1,13.2c-0.9-0.1-1.8-0.1-2.6,0.4c0,0-0.1,0,0,0
		c0.1-0.1,0.2-0.2,0.4-0.3c0,0,0,0,0,0c-0.2-0.1-0.4-0.4-0.5-0.7c0,0,0,0,0,0c0.2,0.3,0.5,0.4,0.8,0.5c0.2-0.1,0.4-0.1,0.6-0.2
		c-0.4-0.2-0.6-0.8-0.5-1.5c0-0.2,0.1-0.3,0.1-0.5c0,0.1,0.1,0.2,0.3,0.2c0.2,0,0.5-0.1,0.5-0.4c0-0.2,0-0.4-0.1-0.5
		c0.1,0,0.2,0,0.4,0c0.1,0,0.3,0.1,0.4,0.2c-0.1-0.3-0.4-0.6-0.8-0.8c-0.7-0.2-1.2,0.4-1.7,0.8c0-0.4,0.3-0.7,0.6-0.9
		c0.7-0.5,1.7-0.2,2.1,0.6c0.5,0.9,0.3,2.2-0.5,2.9C11.7,13,11.9,13.1,12.1,13.2z M10.2,15c-0.2,0.3-0.5,0.7-1.3,0.9
		c-0.8,0.2-2,0.2-2,0.1c0-0.1,2.1,0.1,3.3-1.1c-0.1-0.1-0.4-0.1-0.4-0.2c0,0,0.5-0.1,0.7,0c0.1,0.1-0.1,0.6-0.1,0.6
		C10.1,15.4,10.2,15.2,10.2,15z M4.3,12c-0.5-0.1-0.8-0.8-0.6-1.5c0-0.1,0.1-0.3,0.1-0.4c0,0.1,0.1,0.2,0.3,0.2
		c0.2,0,0.4-0.1,0.5-0.4c0-0.2,0-0.4-0.1-0.5c0.1,0,0.2,0,0.3,0c0.1,0,0.3,0.1,0.4,0.2C5,9.3,4.8,9,4.4,8.9C3.8,8.7,3.2,9.1,2.9,9.6
		c0,0-0.1,0,0,0C3.3,8.3,4.7,8,5.4,9.2c0.2,0.4,0.3,1,0.1,1.6C5.9,10.3,7,10.2,7,10.3c0,0.1-0.9,0.3-1.3,0.8
		c-0.3,0.4-0.4,1.5-0.5,1.5c0,0,0-0.6,0-1.1c-0.3,0.6-0.9,1-1.7,0.8c-0.4-0.1-0.6-0.4-0.7-0.8c0,0,0,0,0,0C3.2,12,3.8,12.2,4.3,12
		C4.4,12,4.3,12,4.3,12z M2.8,8.7C3,7.8,3.7,7.2,4.3,7.1C5.1,7,5.6,7.4,5.9,7.6C6,7.5,6.1,7.3,6.1,7.3C6.6,8.1,6,8.9,6,8.9
		S5.4,8.1,4.5,8C3.5,7.9,2.8,8.7,2.8,8.7z M7.4,14c0,0.2-0.6,0.5-1.2,0.5c-0.8,0-1.2-0.8-1.2-0.8C5.8,14,7.4,13.8,7.4,14z
		 M19.7,13.2c-0.3,1.1-0.9,2.1-2,2.6c-0.8,0.3-1.7,0-1.9-0.8c-0.2,1.4-1.3,2.6-2.5,3.1c0.1-0.2,0.3-0.3,0.5-0.5
		c0.8-0.8,1.4-1.6,1.7-2.6c0.1-0.3,0.2-0.7,0.2-1v0c0,0,0-0.1,0-0.2c0,0,0,0,0,0c0,0.1,0,0.3,0.1,0.5c0.1,0.4,0.2,0.7,0.5,0.9
		c0.8,0.8,1.8,0,2.3-0.8c0.8-1.1,1.3-3.2-0.6-3.4c-0.9-0.1-1.6,0.7-2.2,1.4c-0.1,0.2-0.2,0.5-0.3,0.8c-0.2-0.1-0.6-0.5-0.7-0.8
		c0-0.2,0-0.9,0.4-1.7c0,0-0.6-0.8-0.6-1.2c0-0.4-0.1-1.7-0.1-1.7S12,5.4,7.8,5.4c-3.1,0-4.4,1.1-5,2C2.5,8,2.4,8.7,2.3,9.4
		c-0.1,0.9-0.1,1.8-0.1,2.7c-0.4,1.2-0.4,2.5,0.1,3.6c1,2.3,3.8,3.3,6.3,3.3c1.3,0,2.5-0.2,3.8-0.4c0,0,0,0,0,0
		c-5.1,2.1-12.5-0.5-10.6-6.6c-0.1-1.1,0-2.2,0.1-3.3C1,7.4,0.8,6,0.8,6s0.6,0.2,0.9,0.1c-0.6,0-1.1-0.9-1.1-0.9
		C0.7,4.8,1,4.6,1.4,4.3c-0.3,0-0.5,0.1-0.5,0.1c0.6-0.8,1.4-1.1,1.9-1.3C2.5,2.9,2.2,2.7,2.2,2.7C2.8,2,4.4,1.6,4.9,1.6
		C4.7,1.3,4.5,1.2,4.5,1.2C6,0.3,9.6,0,11.6,1.4c5.3,0.4,8,5.1,6.9,9.2C19.4,10.9,20.1,11.8,19.7,13.2z M17.3,12.4
		c0.1,0.1,0.4,0.6,0,1.2c0,0,0.1,0.1,0.2,0.2c0.3,0.6-0.6,1-0.7,0.9c-0.1,0,0,0,0,0c0,0,0.8-0.5,0.4-0.8c-0.4-0.4-0.8,0-0.8-0.2
		c0-0.2,0.2-0.6,0.2-0.6c0.3-0.5,0.6-1,1.2-1.2c0.8-0.2,1.1,0.5,0.8,1.1l0,0C18.6,11.9,17.9,11.8,17.3,12.4z"/>
</g>
</svg>
