<?xml version="1.0" encoding="UTF-8"?><svg id="avatar" xmlns="http://www.w3.org/2000/svg" viewBox="0 0 44.97 44.17"><defs><style>.cls-1{fill:#f0f6e8;}</style></defs><path class="cls-1" d="M42.17,23.44c1.08-4.62,.12-9.51-2.69-13.52-3.05-4.36-7.84-7.04-13.52-7.55C21.04-1.06,12.87-.32,9.12,1.76c-.25,.14-.39,.4-.37,.68,0,.15,.07,.3,.16,.42-1.63,.36-3.86,1.2-5,2.62-.13,.16-.18,.36-.15,.56s.14,.38,.31,.5c0,0,.08,.06,.22,.15-1.18,.53-2.48,1.37-3.45,2.69-.16,.22-.18,.51-.07,.75-.33,.36-.56,.73-.7,1.11-.07,.2-.06,.42,.04,.61,.06,.11,.31,.56,.71,1.05,0,0,0,0,0,0-.2,.16-.31,.41-.28,.66,.01,.13,.37,3.04,2.5,6.06-.41,2.45-.51,4.83-.31,7.09-1.95,6.39,.49,10.46,2.89,12.75,3.2,3.06,8.17,4.71,13.3,4.71,2.68,0,5.4-.45,7.94-1.38,.03,0,.1-.03,.13-.04,1.06-.38,1.92-.74,2.57-1.08,.02,0,.04-.01,.07-.02,2.63-.92,4.87-3.24,5.86-5.95,.3,.28,.64,.5,1.03,.67,1.02,.44,2.18,.42,3.28-.06,2.33-1.06,4.08-3.34,4.93-6.42,.91-3.57-.68-5.64-2.54-6.46Zm-13.63,.54s-.71-3.26-3.66-4.09c-2.95-.83-5.55,.65-5.55,.65,0,0-1.05-2.33,.98-4.18,0,0-.12,.51,.23,1,1.2-.41,4.09-.46,5.9,.63,1.51,.91,2.91,3.19,2.09,6Zm-1.86,5.69c-2-.28-4.08-.32-5.83,.93-.09,.08-.23-.05-.15-.14,.23-.31,.52-.57,.84-.79-.05,.02-.1,.03-.14,.06-.53-.37-.95-.9-1.1-1.51-.02-.05,.05-.08,.08-.04,.57,.64,1.14,1,1.69,1.17,.42-.21,.88-.35,1.35-.43-.91-.45-1.39-1.86-1.09-3.39,.07-.38,.19-.72,.34-1.04,.12,.3,.35,.53,.65,.59,.53,.1,1.06-.35,1.19-1,.09-.47-.05-.92-.34-1.18,.27-.1,.55-.13,.82-.08,.33,.06,.61,.25,.84,.5-.29-.75-.82-1.38-1.66-1.76-1.54-.53-2.8,.81-3.81,1.8,.1-.83,.69-1.64,1.41-2.16,1.56-1.19,3.94-.43,4.72,1.32,1.06,2.05,.61,4.91-1.03,6.53,.45,.14,.87,.33,1.23,.62Zm-4.22,4.18c-.4,.8-1.09,1.47-2.98,2.08-1.67,.53-4.61,.45-4.61,.17s4.82,.24,7.35-2.56c-.37-.19-.97-.22-.97-.41,0,0,1.18-.24,1.48,.09,.29,.33-.18,1.4-.31,1.42-.11,.02,.11-.46,.05-.79Zm-13.39-6.91c-1.05-.21-1.66-1.66-1.35-3.26,.07-.35,.18-.67,.31-.96,.11,.28,.33,.49,.61,.54,.49,.1,.99-.32,1.1-.93,.09-.44-.05-.85-.31-1.09,.25-.09,.51-.12,.76-.07,.34,.07,.63,.27,.86,.56-.27-.77-.78-1.42-1.61-1.75-1.39-.39-2.71,.53-3.45,1.71-.05,.08-.17,.01-.14-.07,.96-2.74,4.22-3.48,5.68-.7,.56,1,.65,2.32,.37,3.55,.89-1.02,3.32-1.25,3.32-1.03,0,.24-2.17,.76-2.85,1.67-.68,.91-.99,3.3-1.13,3.3-.1,0-.15-1.27,.07-2.45-.78,1.39-2.12,2.32-3.85,1.9-.82-.27-1.4-.96-1.65-1.69-.02-.07,.07-.11,.11-.06,.81,1.15,2.25,1.56,3.41,.83-.09,0-.18,0-.27-.01Zm-3.19-7.37c.29-2.11,1.96-3.48,3.22-3.61,1.77-.18,3.04,.56,3.7,1.2,.25-.21,.4-.8,.4-.8,1.08,1.77-.3,3.72-.3,3.72,0,0-1.25-1.78-3.42-2.11-2.17-.34-3.59,1.61-3.59,1.61Zm10.31,11.96c0,.45-1.32,1.03-2.66,1.02-1.95-.02-2.66-1.95-2.66-1.95,1.65,.94,5.32,.49,5.32,.94Zm27.79-1.82c-.68,2.46-2.1,4.83-4.53,5.94-1.81,.79-3.69,.02-4.3-1.69-.51,3.11-2.93,6-5.81,7,.25-.43,.75-.74,1.08-1.1,1.7-1.67,3.22-3.58,3.97-5.87,.24-.74,.43-1.52,.52-2.32,0-.05,0-.09,.01-.13,.01-.13,.03-.26,.03-.39,0-.05,.09-.07,.1-.01,.09,.35,.14,.71,.16,1.07,.2,.81,.52,1.58,1.05,2.08,1.72,1.67,4.11-.12,5.17-1.79,1.73-2.43,2.84-7.23-1.25-7.71-2.14-.26-3.58,1.51-4.89,3.08-.21,.47-.43,1.03-.65,1.67-.56-.18-1.4-1.2-1.54-1.73-.12-.47,.1-2.05,.97-3.75,0,0-1.27-1.91-1.34-2.74-.08-.83-.31-3.99-.31-3.99,0,0-5.9-5.6-15.46-5.6-7.08,0-10.07,2.57-11.31,4.43-.56,1.46-.86,3.06-1.08,4.6-.31,2.05-.31,4.13-.2,6.15-.84,2.62-.87,5.65,.23,8.17,2.38,5.25,8.7,7.39,14.16,7.46,2.87,.06,5.7-.45,8.59-.86,.07-.02,.11,.1,.04,.13-11.45,4.73-28.34-1.05-23.95-15-.23-2.47-.08-4.93,.34-7.35-2.2-2.98-2.54-5.97-2.54-5.97,0,0,1.3,.48,2.02,.18-1.39-.04-2.53-2.16-2.53-2.16,.28-.75,1.02-1.4,1.89-1.95-.76,.04-1.22,.26-1.22,.26,1.23-1.68,3.06-2.51,4.39-2.91-.64-.49-1.32-.97-1.32-.97,1.4-1.74,4.89-2.56,6-2.56-.37-.73-1-.97-1-.97C12.98,.47,21.03-.31,25.7,3.08c11.97,.96,18.13,11.67,15.59,20.82,2.02,.56,3.54,2.53,2.7,5.81Zm-5.34-1.94c.3,.37,.87,1.34-.15,2.67,.14,.12,.28,.28,.38,.5,.62,1.25-1.32,2.2-1.51,2.18-.19-.02-.16-.1-.05-.09,0,0,1.7-1.16,.84-1.97-.86-.81-1.74-.15-1.85-.55-.11-.4,.42-1.35,.42-1.35,.62-1.13,1.41-2.22,2.71-2.64,1.77-.44,2.43,1.16,1.74,2.55,0,.02-.03,0-.03,0,.36-2.25-1.21-2.57-2.5-1.3Z"/></svg>