<?xml version="1.0" encoding="utf-8"?>
<!-- Generator: Adobe Illustrator 26.5.3, SVG Export Plug-In . SVG Version: 6.00 Build 0)  -->
<svg version="1.1" xmlns="http://www.w3.org/2000/svg" xmlns:xlink="http://www.w3.org/1999/xlink" x="0px" y="0px"
	 viewBox="0 0 150 150" style="enable-background:new 0 0 150 150;" xml:space="preserve">
<style type="text/css">
	.st0{fill:none;}
	.st1{fill:#116194;}
	.st2{fill:#8DD8F8;}
	.st3{fill:#022056;}
	.st4{fill:#B2B2B2;}
	.st5{fill:#D6D6D4;}
</style>
<g id="grids">
	<g id="grid">
		<g>
			<rect x="135" class="st0" width="15" height="15"/>
			<rect x="135" y="135" class="st0" width="15" height="15"/>
		</g>
		<g>
			<rect class="st0" width="15" height="15"/>
			<rect y="135" class="st0" width="15" height="15"/>
		</g>
	</g>
</g>
<g id="logo">
	<g>
		<g>
			<polygon class="st1" points="19.3,50.9 22.9,57.3 35.8,57.3 39.4,50.9 			"/>
			<polygon class="st2" points="39.4,50.9 44,50.9 45.4,53.3 21.6,95.6 19,95.6 16.4,91.3 			"/>
			<polygon class="st3" points="15.2,63.2 21.6,68.9 21.4,82.5 16.4,91.3 15,89.1 			"/>
			<polygon class="st4" points="46.5,54.4 49.1,54.4 51.7,58.6 29,99.1 24.1,99.1 22.6,96.8 			"/>
			<polygon class="st5" points="51.7,58.6 53.1,60.9 53.1,86.7 46.5,81 46.6,67.8 			"/>
			<polygon class="st5" points="32.6,92.8 45.5,92.8 49.2,99.1 29,99.1 			"/>
		</g>
		<g>
			<path class="st4" d="M92.3,84.7v3.1h0.7c3.4,0,6.9,0,10.3,0c0.9,0,1.1,0.2,1.1,1.1c0,0.2,0,0.4,0,0.7c-0.1,0.4-0.3,0.7-0.8,0.7
				c-4.3,0-8.6,0-12.9,0c-0.4,0-0.6-0.1-0.8-0.5c-0.1-0.3-0.2-0.6-0.2-0.9c0-3.2,0-6.4,0-9.5c0-0.2,0-0.4,0.1-0.6
				c0.2-0.7,0.3-0.9,1.1-0.9c4.2,0,8.3,0,12.4,0c0.8,0,1,0.2,1,1c0,1.4-0.1,1.5-1.4,1.5c-3.3,0-6.6,0-10,0c-0.2,0-0.4,0-0.6,0v1.8
				c0.2,0,0.4,0,0.6,0c3.5,0,6.9,0,10.4,0c0.8,0,1,0.2,1,1c0,0.1,0,0.2,0,0.3c0,1-0.2,1.2-1.1,1.2c-3.4,0-6.9,0-10.3,0
				C92.7,84.7,92.5,84.7,92.3,84.7L92.3,84.7z"/>
			<path class="st4" d="M135,84.1c0,1.7,0,3.5,0,5.2c0,0.8-0.2,0.9-1,1c-1.1,0.1-2-0.3-2.8-1.1c-2.2-2.2-4.5-4.3-6.8-6.4
				c-0.1-0.1-0.2-0.2-0.4-0.3c-0.5-0.3-0.8-0.1-0.9,0.3c-0.1,0.3-0.1,0.6-0.1,0.9c0,1.8,0,3.7,0,5.5c0,0.9-0.2,1-1,1
				c-1.5,0-1.5,0-1.5-1.5c0-3.3,0-6.5,0-9.8c0-0.9,0.2-1,1.1-1.1c1.1-0.1,2,0.3,2.8,1.1c2.2,2.2,4.5,4.3,6.7,6.4
				c0.1,0.1,0.2,0.2,0.4,0.3c0.5,0.3,0.8,0.2,0.9-0.4c0.1-0.3,0.1-0.6,0.1-1c0-1.8,0-3.6,0-5.4c0-0.9,0.2-1,1-1c1.4,0,1.4,0,1.4,1.4
				C135,80.9,135,82.5,135,84.1L135,84.1z"/>
			<path class="st4" d="M68.9,90.3c-1.1,0-2.2-0.1-3.3,0c-3.4,0.2-6.7-2.8-6.2-7.1c0.3-2.9,3-5.4,6.1-5.3c2.4,0.1,4.9,0,7.3,0
				c0.9,0,1,0.2,1,1c0,1.4,0,1.5-1.5,1.5c-1.9,0-3.8,0-5.7,0c-1,0-2.1,0-3,0.7c-1.3,1-1.9,2.4-1.5,3.9c0.4,1.4,1.8,2.7,3.4,2.7
				c2.4,0.1,4.8,0.1,7.2,0.1c1.1,0,1.2,0.1,1.2,1.2c0,0.1,0,0.3,0,0.4c0,0.6-0.2,0.9-0.9,0.9C71.5,90.2,70.2,90.2,68.9,90.3
				L68.9,90.3z"/>
			<path class="st4" d="M112.6,77.9c1-0.3,1.5,0.4,2,1.4c1.6,3.4,3.3,6.7,4.9,10.1c0.3,0.7,0.2,1-0.6,1c-0.3,0-0.5,0-0.8,0
				c-0.9,0.1-1.3-0.3-1.7-1c-1.1-2.3-2.3-4.6-3.4-6.9c-0.4-0.8-1-0.8-1.4,0c-0.8,1.4-1.5,2.9-2.2,4.4c-0.5,0.9-0.9,1.9-1.4,2.8
				c-0.2,0.5-0.6,0.8-1.2,0.8c-0.3,0-0.7,0-1,0c-0.7,0-0.9-0.3-0.6-1c0.3-0.6,0.6-1.3,0.9-1.9c1.4-2.7,2.7-5.5,4.1-8.2
				C111,77.9,111,77.9,112.6,77.9z"/>
			<path class="st4" d="M84.1,90.3c-1.2,0-2.3,0-3.5,0c-3.1,0.1-6.1-2.6-6.1-6c0-1.8,0-3.7,0-5.5c0-0.7,0.2-0.9,1-0.9
				c1.5,0,1.6,0.1,1.6,1.6c0,1.6,0,3.3,0.1,4.9c0.1,1.8,1.7,3.3,3.5,3.4c2.4,0.1,4.8,0.1,7.2,0.1c1,0,1.2,0.2,1.2,1.2
				c0,0.2,0,0.3,0,0.5c0,0.6-0.3,0.8-0.9,0.8C86.8,90.3,85.5,90.3,84.1,90.3L84.1,90.3z"/>
		</g>
		<g>
			<path class="st2" d="M87.1,63.1c1.7,0,3.4,0,5.1,0c0.8,0,1,0.2,1,1c0,0.2,0,0.4,0,0.6c0,0.7-0.3,0.9-0.9,0.9c-2.9,0-5.9,0-8.9,0
				c-0.4,0-0.8,0-1.2,0.1c-0.4,0.1-0.7,0.3-0.8,0.8c0,0.5,0.2,0.7,0.6,0.8c0.4,0.1,0.9,0.1,1.4,0.1c1.9,0,3.9,0,5.8,0
				c2.4,0,4,1.8,3.9,4.1c-0.1,2.4-1.7,4-4.1,4c-3.1,0-6.1,0-9.2,0c-0.9,0-1.1-0.2-1.1-1.1c0-0.2,0-0.3,0-0.5c0-0.7,0.2-0.9,0.9-0.9
				c3,0,6.1,0,9.1-0.1c0.3,0,0.6-0.1,0.9-0.2c0.6-0.3,1-0.9,0.9-1.5c-0.1-0.6-0.6-1.2-1.3-1.3c-0.3-0.1-0.6-0.1-0.9-0.1
				c-2.1,0-4.1,0-6.2,0c-3,0-4-2.7-3.2-4.8c0.5-1.2,1.7-2,2.9-2C83.7,63.1,85.4,63.1,87.1,63.1L87.1,63.1z"/>
			<path class="st2" d="M65,63.1c1.1,0,2.2,0.1,3.2,0c3.4-0.2,6.8,2.7,6.3,7c-0.3,3.1-2.9,5.4-6,5.4c-2.4,0-4.9,0-7.3,0
				c-0.8,0-1.1-0.3-1.1-1.1c0-2,0-4,0-6c0-0.9,0.2-1.1,1.1-1.1c0.1,0,0.3,0,0.4,0c0.8,0,1,0.2,1,1c0,1,0,2.1,0,3.1
				c0,1.2,0.2,1.4,1.4,1.4c1.5,0,3.1,0,4.6-0.1c1.7-0.1,3.3-1.7,3.4-3.5c0.1-1.7-1.3-3.4-3-3.7c-0.5-0.1-0.9-0.1-1.4-0.1
				c-2.1,0-4.3,0-6.4,0c-0.8,0-1-0.2-1-1c0-0.2,0-0.4,0-0.6c0-0.6,0.3-0.9,0.9-0.9C62.4,63.1,63.7,63.1,65,63.1L65,63.1z"/>
			<path class="st2" d="M112.2,63.2c1.1-0.2,1.6,0.3,2.1,1.2c1.6,3.4,3.3,6.7,5,10.1c0.4,0.7,0.1,1-0.7,1.1c-1.3,0.1-2-0.3-2.5-1.6
				c-0.9-2.1-2-4.1-3-6.2c-0.2-0.4-0.3-0.9-0.8-0.8c-0.3,0.1-0.7,0.5-0.9,0.8c-1,1.9-1.9,3.8-2.8,5.7c-0.2,0.4-0.4,0.9-0.7,1.3
				c-0.2,0.4-0.6,0.7-1.1,0.7c-0.3,0-0.6,0-0.9,0c-0.9,0-1.1-0.3-0.7-1.1c0.7-1.5,1.4-3,2.2-4.5c0.9-1.9,1.9-3.7,2.8-5.6
				C110.5,63.4,111,62.9,112.2,63.2z"/>
			<path class="st2" d="M101.3,63.1c2.1,0,4.1,0,6.2,0c0.8,0,1,0.2,1,1c0,1.5,0,1.5-1.5,1.5c-1,0-2,0-3,0c-1.1,0-1.4,0.3-1.4,1.4
				c0,2.4,0,4.9,0,7.3c0,0.4,0.1,1-0.5,1.1c-0.6,0.1-1.2,0-1.8-0.1c-0.1,0-0.3-0.5-0.3-0.8c0-2.3,0-4.7,0-7c0-0.2,0-0.3,0-0.5
				c0-1.2-0.3-1.4-1.4-1.4c-1.2,0-2.4,0-3.5,0c-0.7,0-1-0.3-1-1c0-0.2,0-0.4,0-0.6c0-0.7,0.2-1,1-1C97.1,63.1,99.2,63.1,101.3,63.1
				L101.3,63.1z"/>
			<path class="st2" d="M77.9,69.3c0,1.7,0,3.5,0,5.2c0,0.7-0.2,0.9-1,1c-0.2,0-0.4,0-0.7,0c-0.5,0-0.8-0.3-0.8-0.8
				c0-3.6,0-7.2,0-10.8c0-0.6,0.3-0.8,0.9-0.8c1.6,0,1.6,0,1.6,1.6C77.8,66.2,77.8,67.8,77.9,69.3L77.9,69.3z"/>
		</g>
	</g>
</g>
</svg>
